<?xml version="1.0" encoding="UTF-8"?>
<svg id="Layer_1" data-name="Layer 1" xmlns="http://www.w3.org/2000/svg" viewBox="0 0 1977.48 644.4">
  <defs>
    <style>
      .cls-1 {
        fill: #e6e7e8;
      }

      .cls-1, .cls-2, .cls-3, .cls-4 {
        stroke-miterlimit: 10;
      }

      .cls-1, .cls-2, .cls-4 {
        stroke: #bcbec0;
      }

      .cls-1, .cls-4 {
        stroke-width: 2px;
      }

      .cls-2, .cls-3 {
        stroke-width: 1.5px;
      }

      .cls-2, .cls-3, .cls-4 {
        fill: #009899;
      }

      .cls-3 {
        stroke: #d1d3d4;
      }
    </style>
  </defs>
  <polygon class="cls-1" points="345.48 46.97 321.71 2.13 1.66 605.79 51.92 605.79 345.48 46.97"/>
  <polygon class="cls-4" points="406.91 157.04 357.94 70.46 71.98 605.79 169.65 605.79 406.91 157.04"/>
  <polyline class="cls-1" points="420.49 188.44 641.76 605.79 556.07 605.79 413.39 341.78 385.68 396.35 344 318.99"/>
  <g>
    <path class="cls-2" d="M239.76,599.4c-7.63-4.25-13.69-10.2-18.17-17.82-4.49-7.63-6.73-16.21-6.73-25.73s2.24-18.08,6.73-25.66c4.48-7.58,10.54-13.5,18.17-17.75s16.02-6.38,25.18-6.38,17.54,2.13,25.18,6.38c7.63,4.25,13.64,10.17,18.03,17.75,4.4,7.59,6.59,16.14,6.59,25.66s-2.22,18.1-6.66,25.73c-4.44,7.62-10.45,13.57-18.03,17.82-7.58,4.26-15.95,6.38-25.1,6.38-9.17.01-17.56-2.12-25.19-6.38ZM283.59,576.38c4.67-5.18,7.01-12.02,7.01-20.53s-2.34-15.47-7.01-20.6c-4.67-5.14-10.89-7.7-18.65-7.7s-14.13,2.54-18.8,7.63c-4.67,5.08-7.01,11.97-7.01,20.67s2.34,15.46,7.01,20.6,10.94,7.7,18.8,7.7,13.98-2.59,18.65-7.77Z"/>
    <path class="cls-2" d="M415.01,604.83h-23.72l-39.67-60.06v60.06h-23.72v-97.38h23.72l39.67,60.34v-60.34h23.72v97.38h0Z"/>
    <path class="cls-2" d="M455.94,526.46v19.7h31.76v18.31h-31.76v21.36h35.93v19.01h-59.65v-97.38h59.65v19.01h-35.93Z"/>
  </g>
  <g>
    <path class="cls-3" d="M678.35,586.17h31.63v18.64h-55.78v-99.14h24.15v80.5Z"/>
    <path class="cls-3" d="M723.33,514.08c-2.68-2.49-4.02-5.58-4.02-9.25s1.34-6.9,4.02-9.39,6.14-3.74,10.38-3.74,7.56,1.25,10.24,3.74c2.68,2.5,4.02,5.63,4.02,9.39s-1.34,6.76-4.02,9.25c-2.68,2.5-6.1,3.74-10.24,3.74-4.23,0-7.7-1.24-10.38-3.74ZM745.72,526.01v78.8h-24.15v-78.8h24.15Z"/>
    <path class="cls-3" d="M802.77,546.08h-12.99v58.75h-24.15v-58.75h-8.76v-20.05h8.76v-2.26c0-9.7,2.78-17.06,8.33-22.1,5.55-5.04,13.7-7.56,24.43-7.56,1.79,0,3.11.05,3.95.14v20.48c-4.61-.28-7.86.38-9.74,1.98-1.89,1.6-2.82,4.47-2.82,8.62v.71h12.99v20.04Z"/>
    <path class="cls-3" d="M857.99,584.34v20.48h-12.29c-8.76,0-15.58-2.14-20.48-6.42-4.9-4.28-7.34-11.27-7.34-20.97v-31.35h-9.6v-20.05h9.6v-19.21h24.15v19.21h15.82v20.05h-15.82v31.63c0,2.35.56,4.05,1.69,5.08,1.13,1.04,3.01,1.55,5.65,1.55h8.62Z"/>
    <path class="cls-3" d="M885.1,602.42c-5.37-2.35-9.6-5.58-12.71-9.67-3.11-4.1-4.85-8.69-5.22-13.77h23.87c.28,2.73,1.55,4.94,3.81,6.64,2.26,1.7,5.03,2.54,8.33,2.54,3.01,0,5.34-.59,6.99-1.76,1.65-1.18,2.47-2.71,2.47-4.59,0-2.26-1.18-3.93-3.53-5.01-2.35-1.08-6.17-2.28-11.44-3.6-5.65-1.32-10.36-2.71-14.12-4.17-3.77-1.46-7.02-3.76-9.74-6.92-2.73-3.15-4.1-7.42-4.1-12.78,0-4.52,1.25-8.64,3.74-12.36s6.17-6.66,11.02-8.83c4.85-2.17,10.61-3.25,17.3-3.25,9.88,0,17.68,2.45,23.37,7.34,5.69,4.9,8.97,11.39,9.82,19.49h-22.31c-.38-2.73-1.58-4.89-3.6-6.5-2.03-1.6-4.68-2.4-7.98-2.4-2.82,0-4.99.54-6.5,1.62s-2.26,2.57-2.26,4.45c0,2.26,1.2,3.95,3.6,5.09,2.4,1.13,6.14,2.26,11.23,3.39,5.84,1.51,10.59,2.99,14.26,4.45s6.9,3.81,9.67,7.06c2.78,3.25,4.21,7.61,4.31,13.06,0,4.61-1.29,8.73-3.88,12.36-2.59,3.63-6.31,6.47-11.16,8.54s-10.47,3.11-16.88,3.11c-6.88,0-13-1.18-18.36-3.53Z"/>
    <path class="cls-3" d="M1055.97,604.83l-9.18-8.9c-9.13,6.97-20.05,10.45-32.76,10.45-7.62,0-14.26-1.25-19.91-3.74s-10.01-6.02-13.06-10.59c-3.06-4.57-4.59-9.91-4.59-16.03s1.67-11.84,5.01-16.87c3.34-5.04,8.35-9.16,15.04-12.36-2.45-3.01-4.19-5.91-5.22-8.68-1.04-2.78-1.55-5.81-1.55-9.11,0-4.71,1.22-8.99,3.67-12.85,2.45-3.86,6-6.9,10.66-9.11s10.19-3.32,16.59-3.32,12,1.18,16.52,3.53c4.52,2.36,7.91,5.51,10.17,9.46s3.29,8.29,3.11,12.99h-22.74c.09-2.54-.54-4.49-1.91-5.86-1.37-1.36-3.18-2.05-5.44-2.05s-4.14.66-5.65,1.98-2.26,3.01-2.26,5.08.63,4.05,1.91,6.21c1.27,2.17,3.27,4.66,6,7.48l24.15,23.59c.19-.47.44-1.04.78-1.7.33-.66.68-1.41,1.06-2.26l5.23-8.9h24.15l-6.78,12.29c-2.54,5.56-5.46,10.83-8.76,15.82l23.87,23.44h-28.11ZM1031.97,581.51l-22.03-21.32c-6.78,3.48-10.17,8.19-10.17,14.12,0,3.58,1.39,6.57,4.17,8.97s6.52,3.6,11.23,3.6c6.3,0,11.9-1.79,16.8-5.37Z"/>
    <path class="cls-3" d="M1146.92,525.03v20.05h32.34v18.64h-32.34v21.75h36.58v19.35h-60.72v-99.14h60.72v19.35h-36.58Z"/>
    <path class="cls-3" d="M1269.29,534.13c5.51,5.98,8.26,14.19,8.26,24.64v46.04h-24.01v-42.79c0-5.27-1.37-9.37-4.1-12.29s-6.4-4.38-11.02-4.38-8.29,1.46-11.02,4.38-4.1,7.02-4.1,12.29v42.79h-24.15v-78.8h24.15v10.45c2.45-3.48,5.74-6.23,9.88-8.26,4.14-2.02,8.8-3.04,13.98-3.04,9.25.01,16.62,3,22.13,8.97Z"/>
    <path class="cls-3" d="M1338.91,528.27c4.19,2.26,7.41,5.22,9.67,8.9v-11.16h24.15v78.66c0,7.25-1.44,13.81-4.31,19.7-2.87,5.88-7.25,10.57-13.13,14.05-5.88,3.48-13.2,5.23-21.96,5.23-11.68,0-21.14-2.75-28.39-8.26s-11.39-12.97-12.43-22.38h23.87c.75,3.01,2.54,5.39,5.37,7.13,2.82,1.74,6.31,2.61,10.45,2.61,4.99,0,8.97-1.44,11.93-4.31,2.97-2.87,4.45-7.46,4.45-13.77v-11.16c-2.35,3.67-5.6,6.66-9.74,8.97-4.14,2.31-8.99,3.46-14.55,3.46-6.5,0-12.38-1.67-17.65-5.01s-9.44-8.1-12.5-14.26-4.59-13.3-4.59-21.39,1.53-15.2,4.59-21.32c3.06-6.12,7.23-10.83,12.5-14.12s11.16-4.94,17.65-4.94c5.56-.02,10.43,1.11,14.62,3.37ZM1343.57,551.15c-3.34-3.48-7.42-5.22-12.22-5.22s-8.87,1.72-12.22,5.15c-3.34,3.44-5.01,8.17-5.01,14.19s1.67,10.8,5.01,14.33c3.34,3.53,7.42,5.3,12.22,5.3s8.87-1.74,12.22-5.22c3.34-3.48,5.01-8.24,5.01-14.26s-1.67-10.78-5.01-14.27Z"/>
    <path class="cls-3" d="M1392.01,514.08c-2.68-2.49-4.02-5.58-4.02-9.25s1.34-6.9,4.02-9.39,6.15-3.74,10.38-3.74,7.55,1.25,10.24,3.74c2.68,2.5,4.02,5.63,4.02,9.39s-1.34,6.76-4.02,9.25c-2.68,2.5-6.1,3.74-10.24,3.74-4.24,0-7.7-1.24-10.38-3.74ZM1414.39,526.01v78.8h-24.15v-78.8h24.15Z"/>
    <path class="cls-3" d="M1502.02,534.13c5.51,5.98,8.26,14.19,8.26,24.64v46.04h-24.01v-42.79c0-5.27-1.37-9.37-4.1-12.29s-6.4-4.38-11.02-4.38-8.29,1.46-11.02,4.38-4.1,7.02-4.1,12.29v42.79h-24.15v-78.8h24.15v10.45c2.45-3.48,5.74-6.23,9.88-8.26,4.14-2.02,8.8-3.04,13.98-3.04,9.25.01,16.62,3,22.13,8.97Z"/>
    <path class="cls-3" d="M1600.94,571.21h-54.65c.37,4.9,1.95,8.64,4.73,11.23s6.19,3.88,10.24,3.88c6.02,0,10.21-2.54,12.57-7.63h25.7c-1.32,5.18-3.7,9.84-7.13,13.98-3.44,4.14-7.75,7.39-12.92,9.74-5.18,2.35-10.97,3.53-17.37,3.53-7.72,0-14.59-1.65-20.62-4.94-6.03-3.29-10.73-8-14.12-14.12s-5.08-13.27-5.08-21.47,1.67-15.35,5.01-21.47,8.02-10.83,14.05-14.12c6.02-3.29,12.94-4.94,20.76-4.94s14.41,1.6,20.34,4.8c5.93,3.2,10.57,7.77,13.91,13.7,3.34,5.93,5.01,12.85,5.01,20.76,0,2.26-.15,4.62-.43,7.07ZM1576.65,557.79c0-4.14-1.41-7.44-4.24-9.89-2.82-2.45-6.36-3.67-10.59-3.67s-7.46,1.18-10.24,3.53-4.5,5.7-5.15,10.03h30.22Z"/>
    <path class="cls-3" d="M1687.94,571.21h-54.65c.37,4.9,1.95,8.64,4.73,11.23s6.19,3.88,10.24,3.88c6.02,0,10.21-2.54,12.57-7.63h25.7c-1.32,5.18-3.7,9.84-7.13,13.98-3.44,4.14-7.75,7.39-12.92,9.74-5.18,2.35-10.97,3.53-17.37,3.53-7.72,0-14.59-1.65-20.62-4.94-6.03-3.29-10.73-8-14.12-14.12s-5.08-13.27-5.08-21.47,1.67-15.35,5.01-21.47,8.02-10.83,14.05-14.12c6.02-3.29,12.94-4.94,20.76-4.94s14.41,1.6,20.34,4.8c5.93,3.2,10.57,7.77,13.91,13.7,3.34,5.93,5.01,12.85,5.01,20.76,0,2.26-.15,4.62-.43,7.07ZM1663.65,557.79c0-4.14-1.41-7.44-4.24-9.89-2.82-2.45-6.36-3.67-10.59-3.67s-7.46,1.18-10.24,3.53-4.5,5.7-5.15,10.03h30.22Z"/>
    <path class="cls-3" d="M1735.81,528.91c4.24-2.49,8.94-3.74,14.12-3.74v25.56h-6.64c-6.03,0-10.55,1.3-13.56,3.88-3.01,2.59-4.52,7.13-4.52,13.63v36.58h-24.15v-78.8h24.15v13.13c2.83-4.33,6.36-7.75,10.6-10.24Z"/>
    <path class="cls-3" d="M1763.28,514.08c-2.68-2.49-4.02-5.58-4.02-9.25s1.34-6.9,4.02-9.39,6.14-3.74,10.38-3.74,7.55,1.25,10.24,3.74c2.68,2.5,4.02,5.63,4.02,9.39s-1.34,6.76-4.02,9.25c-2.68,2.5-6.1,3.74-10.24,3.74-4.24,0-7.7-1.24-10.38-3.74ZM1785.66,526.01v78.8h-24.15v-78.8h24.15Z"/>
    <path class="cls-3" d="M1873.29,534.13c5.51,5.98,8.26,14.19,8.26,24.64v46.04h-24.01v-42.79c0-5.27-1.37-9.37-4.1-12.29s-6.4-4.38-11.02-4.38-8.29,1.46-11.02,4.38-4.1,7.02-4.1,12.29v42.79h-24.15v-78.8h24.15v10.45c2.45-3.48,5.74-6.23,9.88-8.26,4.14-2.02,8.8-3.04,13.98-3.04,9.25.01,16.62,3,22.13,8.97Z"/>
    <path class="cls-3" d="M1942.91,528.27c4.19,2.26,7.41,5.22,9.67,8.9v-11.16h24.15v78.66c0,7.25-1.44,13.81-4.31,19.7-2.87,5.88-7.25,10.57-13.13,14.05-5.88,3.48-13.2,5.23-21.96,5.23-11.68,0-21.14-2.75-28.39-8.26s-11.39-12.97-12.43-22.38h23.87c.75,3.01,2.54,5.39,5.37,7.13,2.82,1.74,6.31,2.61,10.45,2.61,4.99,0,8.97-1.44,11.93-4.31,2.97-2.87,4.45-7.46,4.45-13.77v-11.16c-2.35,3.67-5.6,6.66-9.74,8.97-4.14,2.31-8.99,3.46-14.55,3.46-6.5,0-12.38-1.67-17.65-5.01s-9.44-8.1-12.5-14.26-4.59-13.3-4.59-21.39,1.53-15.2,4.59-21.32c3.06-6.12,7.23-10.83,12.5-14.12s11.16-4.94,17.65-4.94c5.56-.02,10.43,1.11,14.62,3.37ZM1947.57,551.15c-3.34-3.48-7.42-5.22-12.22-5.22s-8.87,1.72-12.22,5.15c-3.34,3.44-5.01,8.17-5.01,14.19s1.67,10.8,5.01,14.33c3.34,3.53,7.42,5.3,12.22,5.3s8.87-1.74,12.22-5.22c3.34-3.48,5.01-8.24,5.01-14.26.01-6.03-1.67-10.78-5.01-14.27Z"/>
  </g>
</svg>