<?xml version="1.0" encoding="UTF-8"?>
<svg id="Layer_1" data-name="Layer 1" xmlns="http://www.w3.org/2000/svg" xmlns:xlink="http://www.w3.org/1999/xlink" viewBox="0 0 378.61 294.77">
  <defs>
    <style>
      .cls-1 {
        fill: none;
      }

      .cls-1, .cls-2, .cls-3 {
        stroke-width: 0px;
      }

      .cls-4 {
        clip-path: url(#clippath-1);
      }

      .cls-5 {
        clip-path: url(#clippath);
      }

      .cls-2 {
        fill: #e20a2e;
      }

      .cls-3 {
        fill: #fff;
      }
    </style>
    <clipPath id="clippath">
      <rect class="cls-1" width="378.61" height="294.77"/>
    </clipPath>
    <clipPath id="clippath-1">
      <rect class="cls-1" x="81.33" y="206.87" width="248.8" height="87.9"/>
    </clipPath>
  </defs>
  <g class="cls-5">
    <path class="cls-3" d="M110.46,197.37c15.7-4.38,31.61-9.52,47.23-14.88,15.92-5.37,31.84-11.56,47-17.75l-40.29-97.47-25.95,63.02c-9.28,22.36-18.79,44.73-27.99,67.09ZM249.14,144.94h.23-.23ZM260.45,138.96c24.37-12.61,44.44-25.23,57.04-37.02,5.89-5.66,10.26-10.8,12.6-15.94,2.34-4.92,2.56-9.52.53-13.6-.53-1.29-1.51-2.57-2.56-3.85-1.81-1.82-4.08-3.63-7.17-5.14-3.09-1.51-6.42-3.1-10.79-4.38-1.51-.53-3.32-1.06-5.13-1.51-1.82-.23-3.63-.75-5.66-1.28-3.09-.53-6.42-1.06-9.73-1.51-3.62-.53-7.47-1.06-11.32-1.28-.75-.23-1.51-.23-2.34-.23l-2.56-.23c-.76,0-1.82,0-2.57-.23h-2.34c-.53,0-1.06,0-1.51-.23l-5.13-.23h-4.52l-2.8-.23h-9.51c-2.04-.23-3.85-.23-5.88-.23h-6.34c-2.04,0-3.85.23-5.89.23v-.23c42.4-5.89,75-6.42,98.62-2.8,26.18,3.85,41.88,12.61,48.28,24.71h.23c4.38,8.23,4.61,17.98,1.06,28.78-3.62,11.04-11.32,23.12-22.63,35.74-4.6,5.13-9.73,10.58-15.39,15.71-5.66,5.37-12.07,10.58-18.79,15.94-1.28,1.06-2.56,2.04-4.07,3.1-1.29,1.06-2.57,2.04-4.08,3.09v.23c-2.79,2.04-5.66,4.08-8.45,6.19-3.09,2.04-6.18,4.08-9.28,6.2-2.34,1.51-4.37,2.8-6.71,4.38-2.34,1.59-4.37,2.8-6.72,4.39h-.53c-2.34,1.51-4.9,3.09-7.47,4.61-2.56,1.51-5.13,3.1-7.7,4.61-7.17,4.08-14.63,8.01-22.11,12.09-7.7,3.85-15.4,7.7-23.39,11.56-1.51.76-2.8,1.29-4.08,1.82-1.28.75-2.56,1.28-4.07,2.04-2.34,1.06-4.61,2.04-6.94,3.1-2.56,1.06-4.9,2.04-7.17,3.1-2.04.75-3.85,1.51-5.66,2.35s-3.62,1.51-5.36,2.34h-.23c-1.28.53-2.56,1.06-3.85,1.51-1.28.75-2.57,1.28-3.85,1.81-2.56.76-5.13,1.82-7.7,2.8-2.56,1.06-5.13,2.04-7.47,2.8h-.23c-3.32,1.29-6.94,2.57-10.56,3.85-3.32,1.29-6.94,2.57-10.56,3.85h-.53c-1.81.76-3.62,1.29-5.13,1.82-1.81.53-3.62,1.06-5.35,1.81h-.53c-2.34.76-4.91,1.51-7.17,2.35l-1.51.53c-2.04.53-4.38,1.28-6.72,2.04-2.34.53-4.6,1.28-6.71,1.81l-1.81.53c-1.51.53-3.1,1.06-4.61,1.51-.75,0-1.51.23-2.34.53l-7.17,1.81c-.75.23-1.51.54-2.04.76h-.23c-2.8.75-5.89,1.51-8.75,2.04-2.79.76-5.89,1.51-8.75,2.35-.75,0-1.28.23-2.04.53-2.79.53-5.66,1.28-8.45,1.82-2.79.53-5.66,1.28-8.45,1.81l-4.07,1.06c-.53,0-1.06,0-1.51.23-2.04.23-3.85.76-5.88,1.06-1.81.53-3.85.75-5.66,1.28l-1.51.23c-.53,0-1.06,0-1.81.23-1.81.23-3.85.76-5.66,1.06l-4.07.76c-2.04.23-3.85.53-5.89.75-1.28.23-2.56.53-3.85.75-3.09.23-6.19.76-8.98,1.29-.75,0-1.51.23-2.34.23H0c1.28-2.8,2.79-6.2,4.6-9.75l18.04-40.72,11.54-26.22,1.28-2.57c0-.53.23-.75.23-1.28C67.52,142.82,99.36,71.35,130.98.1h67.31c20.82,46.31,41.65,92.63,62.17,138.87Z"/>
  </g>
  <g class="cls-4">
    <path class="cls-2" d="M82.69,294.38h247.09c-12.82-28.78-25.65-57.88-38.78-86.96l-2.04,1.28-1.81,1.29c-8.23,5.13-16.44,10.05-25.2,14.66-8.75,4.91-17.43,9.52-26.71,14.13-23.61,11.56-48.28,22.13-73.49,31.35-25.95,9.3-52.66,17.45-79.14,23.95v.3h.08Z"/>
  </g>
</svg>